<?xml version="1.0" standalone="no"?><!DOCTYPE svg PUBLIC "-//W3C//DTD SVG 1.1//EN" "http://www.w3.org/Graphics/SVG/1.1/DTD/svg11.dtd"><svg t="1493365476379" class="icon" style="" viewBox="0 0 1024 1024" version="1.1" xmlns="http://www.w3.org/2000/svg" p-id="4499" xmlns:xlink="http://www.w3.org/1999/xlink" width="200" height="200"><defs><style type="text/css"></style></defs><path d="M767.515189 956.397323 192.565464 956.397323c-52.833417 0-95.826319-42.99114-95.826319-95.823416L96.739145 221.769896c0-52.826136 42.992902-95.817276 95.826319-95.817276l447.180618 0c17.661965 0 31.943812 14.308891 31.943812 31.937386 0 17.631566-14.281846 31.940456-31.943812 31.940456L192.565464 189.830463c-17.600564 0-31.943812 14.338566-31.943812 31.93841l0 638.805034c0 17.633612 14.343247 31.942503 31.943812 31.942503l574.950748 0c17.627171 0 31.938695-14.307867 31.938695-31.942503L799.454907 349.533768c0-17.632589 14.280823-31.94148 31.942788-31.94148 17.664012 0 31.939718 14.307867 31.939718 31.94148l0 511.041162C863.336391 913.407206 820.342466 956.397323 767.515189 956.397323L767.515189 956.397323zM579.854633 445.356161c-8.176552 0-16.35208-3.134387-22.580176-9.363252-12.492011-12.486382-12.492011-32.67212 0-45.159526l317.432356-317.423443c12.490987-12.491499 32.679599-12.491499 45.166493 0 12.492011 12.485359 12.492011 32.67212 0 45.164642L602.440949 435.992909C596.211829 442.256566 588.034254 445.356161 579.854633 445.356161L579.854633 445.356161zM448.098561 445.356161 256.447971 445.356161c-17.633312 0-31.943812-14.309914-31.943812-31.942503 0-17.631566 14.3105-31.94148 31.943812-31.94148l191.651614 0c17.629218 0 31.938695 14.309914 31.938695 31.94148C480.037256 431.046247 465.727779 445.356161 448.098561 445.356161L448.098561 445.356161zM639.746082 636.995829 256.447971 636.995829c-17.633312 0-31.943812-14.276145-31.943812-31.93841 0-17.667382 14.3105-31.942503 31.943812-31.942503l383.298111 0c17.661965 0 31.943812 14.275121 31.943812 31.942503C671.689894 622.718661 657.408047 636.995829 639.746082 636.995829L639.746082 636.995829zM639.746082 636.995829" p-id="4500" fill="#8a8a8a"></path></svg>