<?xml version="1.0" standalone="no"?><!DOCTYPE svg PUBLIC "-//W3C//DTD SVG 1.1//EN" "http://www.w3.org/Graphics/SVG/1.1/DTD/svg11.dtd"><svg t="1494220954304" class="icon" style="" viewBox="0 0 1024 1024" version="1.1" xmlns="http://www.w3.org/2000/svg" p-id="2342" xmlns:xlink="http://www.w3.org/1999/xlink" width="200" height="200"><defs><style type="text/css"></style></defs><path d="M960.154903 512.021489c0 17.567098-13.973246 31.807427-31.210839 31.807427L95.055936 543.828916c-17.237593 0-31.210839-14.241352-31.210839-31.807427l0 0c0-17.567098 13.973246-31.807427 31.210839-31.807427l833.888128 0C946.181657 480.21304 960.154903 494.454392 960.154903 512.021489L960.154903 512.021489z" p-id="2343" fill="#707070"></path><path d="M512 63.866586c17.567098 0 31.807427 13.973246 31.807427 31.210839l0 833.888128c0 17.237593-14.240329 31.210839-31.807427 31.210839l0 0c-17.567098 0-31.807427-13.973246-31.807427-31.210839L480.192573 95.077426C480.19155 77.839833 494.432902 63.866586 512 63.866586L512 63.866586z" p-id="2344" fill="#707070"></path></svg>