<?xml version="1.0" standalone="no"?><!DOCTYPE svg PUBLIC "-//W3C//DTD SVG 1.1//EN" "http://www.w3.org/Graphics/SVG/1.1/DTD/svg11.dtd"><svg t="1494220975703" class="icon" style="" viewBox="0 0 1024 1024" version="1.1" xmlns="http://www.w3.org/2000/svg" p-id="3105" xmlns:xlink="http://www.w3.org/1999/xlink" width="200" height="200"><defs><style type="text/css"></style></defs><path d="M367.1552 799.6416 367.1552 332.1344c0-13.824-11.2384-25.0624-25.0624-25.0624-13.824 0-25.0624 11.2384-25.0624 25.0624l0 467.5072c0 13.824 11.2384 25.0624 25.0624 25.0624C355.9168 824.6784 367.1552 813.44 367.1552 799.6416z" p-id="3106" fill="#707070"></path><path d="M873.344 285.824c-13.7984 0-25.0368 11.2384-25.0368 25.0368l0 573.7728c0 21.3504-17.3312 38.7072-38.6816 38.7072L214.5792 923.3408c-21.3504 0-38.7072-17.3568-38.7072-38.7072L175.872 310.8608c0-13.7984-11.2384-25.0368-25.0624-25.0368-9.7792 0-18.5088 5.6576-22.6048 14.2336l-2.432-1.3568 0 585.9328c0 48.9728 39.8336 88.8064 88.8064 88.8064l595.0464 0c48.9728 0 88.8064-39.8336 88.8064-88.8064L898.432 310.8608C898.432 297.0624 887.168 285.824 873.344 285.824z" p-id="3107" fill="#707070"></path><path d="M537.1648 799.6416 537.1648 332.1344c0-13.824-11.2384-25.0624-25.0624-25.0624-13.824 0-25.0624 11.2384-25.0624 25.0624l0 467.5072c0 13.824 11.2384 25.0624 25.0624 25.0624C525.9264 824.6784 537.1648 813.44 537.1648 799.6416z" p-id="3108" fill="#707070"></path><path d="M707.1744 799.6416 707.1744 332.1344c0-13.824-11.2384-25.0624-25.0624-25.0624-13.824 0-25.0624 11.2384-25.0624 25.0624l0 467.5072c0 13.824 11.2384 25.0624 25.0624 25.0624C695.9104 824.6784 707.1744 813.44 707.1744 799.6416z" p-id="3109" fill="#707070"></path><path d="M937.2416 137.0624l-243.1488 0-77.312-77.2864c-4.9664-4.9664-11.6224-7.68-18.6368-7.68l-1.0752 0-170.9056 0c-7.0656 0-13.696 2.7392-18.6624 7.7056L330.24 137.0624 87.0656 137.0624c-13.824 0-25.0624 11.2384-25.0624 25.0624s11.2384 25.0624 25.0624 25.0624l255.0016 0 1.6384 0c7.04 0 13.6704-2.7392 18.6368-7.7056l77.2864-77.2864 144.9984 0 77.312 77.2864c4.9664 4.9664 11.5456 7.68 19.0208 7.68 0 0 0.0256 0 0.0512 0l256.2048 0.0256c13.824 0 25.0624-11.2384 25.0624-25.0624S951.0656 137.0624 937.2416 137.0624z" p-id="3110" fill="#707070"></path></svg>