<?xml version="1.0" standalone="no"?><!DOCTYPE svg PUBLIC "-//W3C//DTD SVG 1.1//EN" "http://www.w3.org/Graphics/SVG/1.1/DTD/svg11.dtd"><svg t="1495423032925" class="icon" style="" viewBox="0 0 1024 1024" version="1.1" xmlns="http://www.w3.org/2000/svg" p-id="2373" xmlns:xlink="http://www.w3.org/1999/xlink" width="200" height="200"><defs><style type="text/css"></style></defs><path d="M511.28832 955.500544c-248.651776 0-450.246656-201.616384-450.246656-450.267136 0-248.699904 201.59488-450.285568 450.246656-450.285568 248.68864 0 450.306048 201.585664 450.306048 450.285568C961.594368 753.88416 759.977984 955.500544 511.28832 955.500544L511.28832 955.500544zM531.736576 337.557504l0-57.48736-40.896512 0L490.840064 484.744192 286.163968 484.744192l0 40.94976 204.675072 0 0 204.643328 40.896512 0L531.735552 525.692928l204.694528 0 0-40.94976 0 0L531.736576 484.743168 531.736576 337.557504" p-id="2374" fill="#47bdff"></path></svg>