<?xml version="1.0" standalone="no"?><!DOCTYPE svg PUBLIC "-//W3C//DTD SVG 1.1//EN" "http://www.w3.org/Graphics/SVG/1.1/DTD/svg11.dtd"><svg t="1495436452635" class="icon" style="" viewBox="0 0 1024 1024" version="1.1" xmlns="http://www.w3.org/2000/svg" p-id="3899" xmlns:xlink="http://www.w3.org/1999/xlink" width="200" height="200"><defs><style type="text/css"></style></defs><path d="M877.42464 498.63168c-59.62752-60.62592-137.088-103.90016-230.23104-128.61952-47.70816-12.65664-90.01984-6.54848-120.85248-8.58624L526.34112 170.55744c0-15.01184-8.31488-28.5696-21.68832-35.3792-13.08672-6.65088-29.49632-5.3504-41.36448 3.29216L28.55424 455.06048c-10.22976 7.45984-16.32768 19.46112-16.32256 32.11776 0.01024 12.65664 6.13888 24.65792 16.39936 32.1024l434.7136 315.136c11.87328 8.6272 28.29824 9.89696 41.344 3.23072 13.35808-6.80448 21.65248-20.35712 21.65248-35.35872l0-177.97632c143.55456 6.86592 258.29376 62.86848 332.58496 141.00992 59.53024 62.61248 96.7424 127.06304 96.88064 127.71328l55.84896-7.43936C1014.35392 722.10944 969.19552 591.90784 877.42464 498.63168zM758.00576 603.66336c-77.312-32.07168-168.6016-59.6736-271.35488-59.6736-21.888 0-39.69024 17.81248-39.69024 39.70048l0 140.8L119.45472 487.0656l327.50592-238.49984 0 151.47008c0 10.7008 4.42368 21.12 12.14976 28.5696 7.43424 7.17312 17.22368 11.12576 27.5712 11.12576l1.41824-0.0256c0.26112-0.00512 2.08896-0.06656 5.23264-0.06656 33.99168 0 209.53088-5.26848 327.5008 114.65728 39.60832 40.2688 68.87936 89.856 87.45984 147.96288C866.80576 660.97664 816.31744 627.84512 758.00576 603.66336z" p-id="3900" fill="#47bdff"></path></svg>