<?xml version="1.0" standalone="no"?><!DOCTYPE svg PUBLIC "-//W3C//DTD SVG 1.1//EN" "http://www.w3.org/Graphics/SVG/1.1/DTD/svg11.dtd"><svg t="1492998622989" class="icon" style="" viewBox="0 0 1024 1024" version="1.1" xmlns="http://www.w3.org/2000/svg" p-id="2353" xmlns:xlink="http://www.w3.org/1999/xlink" width="200" height="200"><defs><style type="text/css"></style></defs><path d="M831.796609 448.299189 639.91455 448.299189 639.91455 256.394485c0-35.329646-28.634333-63.963801-63.956252-63.963801L128.237929 192.430684c-35.320896 0-63.956252 28.635177-63.956252 63.963801l0 639.671775c0 35.329646 28.634333 63.96994 63.956252 63.96994L511.994883 960.036199c0 35.325553 28.638426 63.964824 63.962392 63.964824l255.838311 0c35.320896 0 63.956252-28.638247 63.956252-63.964824L895.751838 512.26299C895.751838 476.934366 867.117505 448.299189 831.796609 448.299189zM352.099649 928.052764c-17.663006 0-31.980684-14.319124-31.980684-31.986505 0-17.664312 14.317678-31.984459 31.980684-31.984459 17.658913 0 31.976591 14.319124 31.976591 31.984459C384.07624 913.732617 369.759585 928.052764 352.099649 928.052764zM511.994883 512.26299l0 319.835376L160.218613 832.098365c-17.663006 0-31.980684-14.319124-31.980684-31.984459L128.237929 288.37792c0-17.661242 14.317678-31.984459 31.980684-31.984459l383.760025 0c17.663006 0 31.980684 14.322194 31.980684 31.984459l0 159.921269C540.633309 448.299189 511.994883 476.934366 511.994883 512.26299zM831.796609 927.851173c0 17.667382-14.317678 32.362059-31.980684 32.362059l-191.881036-0.127913c-17.658913 0-31.976591-17.636682-31.976591-35.304064L575.958299 544.246425c0-17.661242 14.317678-31.984459 31.976591-31.984459l191.881036 0c17.663006 0 31.980684 14.322194 31.980684 31.984459L831.796609 927.851173z" p-id="2354" fill="#999999"></path></svg>