<?xml version="1.0" standalone="no"?><!DOCTYPE svg PUBLIC "-//W3C//DTD SVG 1.1//EN" "http://www.w3.org/Graphics/SVG/1.1/DTD/svg11.dtd"><svg t="1492998774663" class="icon" style="" viewBox="0 0 1024 1024" version="1.1" xmlns="http://www.w3.org/2000/svg" p-id="3224" xmlns:xlink="http://www.w3.org/1999/xlink" width="200" height="200"><defs><style type="text/css"></style></defs><path d="M752.068 656.137c-31.611-23.425-65.593-42.442-101.293-56.872 20.256-12.786 39.249-27.913 56.604-45.268 61.154-61.161 94.838-142.459 94.838-228.949 0-86.484-33.683-167.789-94.838-228.949C646.224 34.957 564.919 1.267 478.429 1.267s-167.789 33.69-228.943 94.832c-61.154 61.161-94.825 142.465-94.825 228.949 0 86.49 33.671 167.789 94.825 228.949 17.498 17.486 36.64 32.731 57.077 45.579l0.012 0c-0.112 0.05-0.212 0.081-0.311 0.131l0.168 0c-48.736 19.746-94.091 47.889-133.962 83.639C88.838 758.37 35.701 860.877 22.846 971.994c-2.154 18.625 11.205 35.495 29.843 37.643 1.32 0.143 2.633 0.224 3.94 0.224 17.019 0 31.698-12.749 33.702-30.06 10.944-94.62 56.224-181.938 127.494-245.881 71.818-64.41 164.552-99.893 261.126-99.893 84.523 0 164.975 26.518 232.666 76.68 15.071 11.18 36.342 8.005 47.522-7.072C770.301 688.569 767.138 667.292 752.068 656.137L752.068 656.137zM297.524 505.965c-48.331-48.331-74.93-112.579-74.93-180.917 0-68.332 26.599-132.586 74.93-180.898 48.325-48.325 112.573-74.937 180.905-74.937 68.338 0 132.586 26.612 180.917 74.937 48.318 48.312 74.937 112.567 74.937 180.898 0 68.338-26.618 132.586-74.937 180.917-31.555 31.536-69.894 53.84-111.733 65.506-26.207 7.302-53.554 10.358-80.738 9.157-19.466-0.847-38.844-3.903-57.625-9.157-0.044 0-0.081-0.019-0.112-0.037l0 0C367.35 559.755 329.042 537.489 297.524 505.965L297.524 505.965zM968.025 834.091l-87.38 0 0-87.387c0-18.756-15.208-33.964-33.976-33.964-18.756 0-33.957 15.208-33.957 33.964l0 87.387-87.38 0c-18.768 0-33.97 15.208-33.97 33.964 0 18.768 15.201 33.976 33.97 33.976l87.38 0 0 87.368c0 18.775 15.201 33.982 33.957 33.982 18.768 0 33.976-15.208 33.976-33.982l0-87.368 87.38 0c18.756 0 33.957-15.208 33.957-33.976C1001.983 849.299 986.781 834.091 968.025 834.091L968.025 834.091z" p-id="3225" fill="#999999"></path></svg>