<?xml version="1.0" standalone="no"?><!DOCTYPE svg PUBLIC "-//W3C//DTD SVG 1.1//EN" "http://www.w3.org/Graphics/SVG/1.1/DTD/svg11.dtd"><svg t="1493365408355" class="icon" style="" viewBox="0 0 1024 1024" version="1.1" xmlns="http://www.w3.org/2000/svg" p-id="3641" xmlns:xlink="http://www.w3.org/1999/xlink" width="200" height="200"><defs><style type="text/css"></style></defs><path d="M1002.704593 188.719407 736.976593 188.719407l0-91.401481C736.976593 64.568889 709.44237 37.925926 675.612444 37.925926L348.368593 37.925926c-33.829926 0-61.364148 26.642963-61.364148 59.392l0 91.401481L21.295407 188.719407C9.519407 188.719407 0 199.262815 0 212.29037c0 13.008593 9.519407 23.570963 21.295407 23.570963l123.145481 0c0 0.018963-0.018963 0.056889-0.018963 0.075852l0 688.355556c0 34.076444 28.634074 61.800296 63.829333 61.800296l607.478519 0c35.176296 0 63.829333-27.723852 63.829333-61.800296L879.559111 340.442074c0-11.377778-9.519407-20.612741-21.295407-20.612741-11.776 0-27.439407 9.234963-27.439407 20.612741L830.805333 917.617778c0 11.358815-9.519407 20.574815-21.238519 20.574815L214.414222 938.192593c-11.700148 0-21.238519-9.216-21.238519-20.574815l0.018963-681.680593c0-0.018963-0.018963-0.056889-0.018963-0.075852l809.528889 0c11.776 0 21.295407-10.56237 21.295407-23.570963C1024 199.262815 1014.480593 188.719407 1002.704593 188.719407zM694.385778 188.719407 329.595259 188.719407l0-91.401481c0-10.012444 8.419556-18.166519 18.773333-18.166519l327.243852 0c10.353778 0 18.773333 8.154074 18.773333 18.166519L694.385778 188.719407zM380.055704 340.442074l0 473.182815c0 11.396741 10.960593 20.612741 24.481185 20.612741 13.539556 0 24.481185-9.216 24.481185-20.612741L429.018074 340.442074c0-11.377778-10.960593-20.612741-24.481185-20.612741C391.016296 319.829333 380.055704 329.064296 380.055704 340.442074zM596.15763 340.442074l0 473.182815c0 11.396741 10.846815 20.612741 24.272593 20.612741s24.272593-9.216 24.272593-20.612741L644.702815 340.442074c0-11.377778-10.846815-20.612741-24.272593-20.612741S596.15763 329.064296 596.15763 340.442074z" p-id="3642" fill="#8a8a8a"></path></svg>