<?xml version="1.0" standalone="no"?><!DOCTYPE svg PUBLIC "-//W3C//DTD SVG 1.1//EN" "http://www.w3.org/Graphics/SVG/1.1/DTD/svg11.dtd"><svg t="1493783513267" class="icon" style="" viewBox="0 0 1024 1024" version="1.1" xmlns="http://www.w3.org/2000/svg" p-id="1936" xmlns:xlink="http://www.w3.org/1999/xlink" width="200" height="200"><defs><style type="text/css"></style></defs><path d="M781.06624 569.3696c-2.47296-1.65376-10.93632-2.36032-27.84256-2.47808-1.38752-0.03072-2.74432-0.10752-4.13696-0.10752-3.72224 0-7.40864 0.10752-11.06944 0.31744-104.09984 4.80768-190.58688 90.60352-186.62912 195.60448v0.01536c0 5.6832 0.3072 11.29984 0.77824 16.86016 0.49152 8.20736 1.0496 12.89728 1.82784 14.81216 15.27808 93.12256 96.78848 164.23936 195.09248 164.23936 109.17888 0 197.69344-87.72096 197.69344-195.91168 0.02048-97.4592-71.7312-178.20672-165.71392-193.35168z m110.0544 178.92864l-144.53248 141.56288a26.74688 26.74688 0 0 1-37.30944 0l-83.91168-82.19136a25.46688 25.46688 0 0 1-0.50688-36.0192l0.50688-0.512a26.70592 26.70592 0 0 1 37.27872 0l65.28 63.8976 125.91104-123.27424a26.76736 26.76736 0 0 1 37.2736 0 25.4208 25.4208 0 0 1 0.55296 35.968 6.3744 6.3744 0 0 1-0.54272 0.56832z" fill="#4C83F8" p-id="1937"></path><path d="M497.36704 711.19872H228.21888v-81.72032h61.74208V482.39616h88.97536v147.08736h32.68608V406.13376h88.97536v83.52256h110.76608v56.10496a255.744 255.744 0 0 1 137.71264-40.05376c22.27712 0 43.8784 2.8416 64.49152 8.1664 0.14848-3.0976 0.2304-6.15936 0.2304-9.15968V212.32128c-173.35296 0-274.3808-65.72544-368.25088-138.08128-93.96224 72.35072-195.0976 138.08128-368.34816 138.08128v292.39808c0 151.66464 194.99008 419.36896 368.35328 419.36896 29.184 0 58.96704-7.6544 88.32-20.992a255.7696 255.7696 0 0 1-41.7792-140.40064c0-17.64352 1.87904-34.84672 5.2736-51.49696zM391.64928 273.57184h94.42304l9.07776 9.07776c55.66464 48.43008 113.1776 85.96992 172.50816 112.57856l-34.50368 87.16288c-75.06944-35.09248-138.00448-78.08512-188.8512-128.92672C397.09184 409.15456 335.94368 456.3712 260.89984 495.104L219.136 409.7536c72.63744-36.31104 130.11968-81.70496 172.51328-136.18176z" fill="#4C83F8" p-id="1938"></path><path d="M500.60288 629.4784h31.65184l26.63424-39.6032a257.6128 257.6128 0 0 1 14.7712-14.86336H500.60288v54.46656z" fill="#4C83F8" p-id="1939"></path></svg>