<?xml version="1.0" standalone="no"?><!DOCTYPE svg PUBLIC "-//W3C//DTD SVG 1.1//EN" "http://www.w3.org/Graphics/SVG/1.1/DTD/svg11.dtd"><svg t="1495077901411" class="icon" style="" viewBox="0 0 1024 1024" version="1.1" xmlns="http://www.w3.org/2000/svg" p-id="2287" xmlns:xlink="http://www.w3.org/1999/xlink" width="200" height="200"><defs><style type="text/css"></style></defs><path d="M318.408375 572.524468c20.174482 0 374.283452 0 388.199393 0 18.049075 0 31.477922 18.653849 20.918425 37.086663-8.453533 14.775518-179.1144 310.028009-193.711863 335.227947-9.589402 16.549931-32.451086 16.270569-42.051745 0-10.705829-18.141172-182.235484-314.5193-194.151885-335.983147C288.871665 593.138972 298.526559 572.524468 318.408375 572.524468z" p-id="2288" fill="#666666"></path><path d="M709.002304 448.857914c-20.174482 0-374.283452 0-388.199393 0-18.048051 0-31.477922-18.653849-20.918425-37.087687C308.338019 396.995733 478.998887 101.743242 493.595326 76.543304c9.590426-16.548908 32.451086-16.270569 42.051745 0 10.705829 18.141172 182.235484 314.520323 194.151885 335.984171C738.540038 428.243411 728.885144 448.857914 709.002304 448.857914z" p-id="2289" fill="#666666"></path></svg>