<?xml version="1.0" standalone="no"?><!DOCTYPE svg PUBLIC "-//W3C//DTD SVG 1.1//EN" "http://www.w3.org/Graphics/SVG/1.1/DTD/svg11.dtd"><svg t="1495078328898" class="icon" style="" viewBox="0 0 1024 1024" version="1.1" xmlns="http://www.w3.org/2000/svg" p-id="3272" xmlns:xlink="http://www.w3.org/1999/xlink" width="200" height="200"><defs><style type="text/css"></style></defs><path d="M901.959991 901.341403c0 31.908734-26.106588 58.014298-58.014298 58.014298L181.34265 959.355701c-31.907711 0-58.014298-26.106588-58.014298-58.014298L123.328351 122.035404c0-31.907711 26.106588-58.014298 58.014298-58.014298l662.60202 0c31.908734 0 58.014298 26.106588 58.014298 58.014298L901.958968 901.341403zM862.822622 160.776753c0-31.907711-26.106588-58.014298-58.014298-58.014298L220.29787 102.762455c-31.907711 0-58.014298 26.106588-58.014298 58.014298L162.283572 862.466c0 31.908734 26.106588 58.014298 58.014298 58.014298l584.509431 0c31.908734 0 58.014298-26.106588 58.014298-58.014298L862.821599 160.776753zM766.062881 237.667981c0-9.572006-7.831362-17.404392-17.404392-17.404392L296.147372 220.263589c-9.572006 0-17.404392 7.831362-17.404392 17.404392l0 2.90005c0 9.572006 7.831362 17.404392 17.404392 17.404392l452.511117 0c9.572006 0 17.404392-7.832386 17.404392-17.404392L766.062881 237.667981zM766.23275 374.108466c0-9.572006-7.831362-17.404392-17.404392-17.404392L296.317241 356.704075c-9.572006 0-17.404392 7.831362-17.404392 17.404392l0 2.901073c0 9.572006 7.831362 17.404392 17.404392 17.404392L748.828358 394.413931c9.572006 0 17.404392-7.831362 17.404392-17.404392L766.23275 374.108466zM766.289032 490.851331c0-9.572006-7.831362-17.404392-17.404392-17.404392L296.374546 473.446939c-9.572006 0-17.404392 7.831362-17.404392 17.404392l0 2.901073c0 9.572006 7.831362 17.404392 17.404392 17.404392l452.511117 0c9.572006 0 17.404392-7.831362 17.404392-17.404392L766.290055 490.851331zM432.802752 607.018074c0-9.572006-7.831362-17.404392-17.404392-17.404392L296.469714 589.613682c-9.572006 0-17.404392 7.831362-17.404392 17.404392l0 2.90005c0 9.572006 7.831362 17.404392 17.404392 17.404392l118.92967 0c9.572006 0 17.404392-7.831362 17.404392-17.404392L432.803775 607.018074zM746.468614 585.254398l-15.632025-15.632025c-12.674671-12.674671-32.133861-13.766538-43.462884-2.438539L512.446673 742.109842l61.533448 61.533448 174.927031-174.927031C760.236176 617.387235 759.143285 597.929068 746.468614 585.254398zM493.153258 761.599731l0 61.570287 61.300135 0 0.135076-0.135076L493.153258 761.599731z" p-id="3273" fill="#8a8a8a"></path></svg>