<?xml version="1.0" standalone="no"?><!DOCTYPE svg PUBLIC "-//W3C//DTD SVG 1.1//EN" "http://www.w3.org/Graphics/SVG/1.1/DTD/svg11.dtd"><svg t="1495078358030" class="icon" style="" viewBox="0 0 1024 1024" version="1.1" xmlns="http://www.w3.org/2000/svg" p-id="4644" xmlns:xlink="http://www.w3.org/1999/xlink" width="200" height="200"><defs><style type="text/css"></style></defs><path d="M682.625052 376.561331 462.387046 594.130555l-104.672968-107.099227c-12.726859-13.07683-33.758871-13.320377-46.809095-0.539282-13.104459 12.781094-13.373589 33.758871-0.539282 46.862307l127.915321 130.935098c6.148024 6.309706 14.560624 9.895371 23.404036 9.976212 0.054235 0 0.161682 0 0.26913 0 8.735965 0 17.095353-3.451612 23.296589-9.572006l243.966431-241.000889c12.995989-12.861936 13.158694-33.839713 0.26913-46.862307C716.599841 363.78126 695.622064 363.67279 682.625052 376.561331z" p-id="4645" fill="#8a8a8a"></path><path d="M828.282456 195.717544C743.778854 111.240547 631.448486 64.701604 512 64.701604s-231.778854 46.538943-316.282456 131.015939c-174.400029 174.400029-174.400029 458.164884 0 632.564913 84.503603 84.476997 196.833971 131.015939 316.282456 131.015939s231.778854-46.538943 316.282456-131.015939C1002.682485 653.882428 1002.682485 370.117572 828.282456 195.717544zM781.473361 781.420149c-71.992661 71.966055-167.713746 111.601774-269.474384 111.601774s-197.4807-39.636742-269.474384-111.601774c-71.938426-71.966055-111.575168-167.632905-111.575168-269.420149s39.636742-197.454094 111.575168-269.420149c71.992661-71.966055 167.713746-111.601774 269.474384-111.601774s197.481723 39.636742 269.474384 111.601774c71.938426 71.966055 111.575168 167.632905 111.575168 269.420149S853.41281 709.454094 781.473361 781.420149z" p-id="4646" fill="#8a8a8a"></path></svg>